<?xml version="1.0" encoding="UTF-8"?>
<svg version="1.1" xmlns="http://www.w3.org/2000/svg" width="200" height="200">
<path d="M0 0 C5.5542907 3.72401967 8.05568397 8.80519604 10.55078125 14.875 C12.20078125 14.875 13.85078125 14.875 15.55078125 14.875 C15.55078125 12.565 15.55078125 10.255 15.55078125 7.875 C18.19078125 7.875 20.83078125 7.875 23.55078125 7.875 C23.55078125 10.185 23.55078125 12.495 23.55078125 14.875 C25.86078125 14.875 28.17078125 14.875 30.55078125 14.875 C30.59332481 16.87454746 30.59158908 18.87541636 30.55078125 20.875 C29.55078125 21.875 29.55078125 21.875 26.48828125 21.9375 C25.51890625 21.916875 24.54953125 21.89625 23.55078125 21.875 C24.04578125 26.33 24.04578125 26.33 24.55078125 30.875 C28.18697781 31.95584521 28.18697781 31.95584521 30.55078125 31.875 C30.55078125 34.185 30.55078125 36.495 30.55078125 38.875 C27.48648349 40.40714888 24.93421705 40.10438548 21.55078125 39.875 C16.95078125 37.675 16.95078125 37.675 15.55078125 34.875 C15.47985283 32.6677077 15.466631 30.45832548 15.48828125 28.25 C15.49730469 27.06148437 15.50632813 25.87296875 15.515625 24.6484375 C15.52722656 23.73320313 15.53882813 22.81796875 15.55078125 21.875 C13.1068148 22.04322737 13.1068148 22.04322737 10.55078125 22.875 C9.22730318 24.76259465 9.22730318 24.76259465 8.48828125 27.125 C6.62192453 31.85460276 4.41125464 35.24708579 0.55078125 38.625 C-5.14854194 45.03673859 -6.42543369 53.48173307 -7.96679688 61.66650391 C-8.11697266 62.42366699 -8.26714844 63.18083008 -8.421875 63.9609375 C-8.54828369 64.6420459 -8.67469238 65.3231543 -8.80493164 66.02490234 C-9.58033157 68.25149599 -10.69192184 69.33852309 -12.44921875 70.875 C-13.90735534 67.51468522 -14.75943315 64.495872 -15.26171875 60.875 C-16.39157953 54.16872958 -18.89302794 48.14523807 -21.44921875 41.875 C-21.94421875 40.39 -21.94421875 40.39 -22.44921875 38.875 C-23.43921875 38.545 -24.42921875 38.215 -25.44921875 37.875 C-30.66022602 32.36224176 -33.96385773 27.16235568 -34.82421875 19.5625 C-34.08428112 12.28644668 -31.10845851 6.56802809 -25.44921875 1.875 C-17.11277713 -3.7520981 -9.30143181 -4.27242801 0 0 Z M-20.44921875 11.875 C-23.14309343 15.91581202 -23.10789089 19.13089306 -22.44921875 23.875 C-20.44392502 27.64495222 -19.00277633 28.63922547 -15.07421875 30.3125 C-11.01262743 30.94274693 -9.11758224 30.66842215 -5.44921875 28.875 C-3.23621989 26.96105504 -1.75459114 25.48574479 -0.44921875 22.875 C-0.08734522 17.03032462 -0.08734522 17.03032462 -2.44921875 11.875 C-5.30518573 8.90918814 -8.34332985 8.1259801 -12.41796875 7.73828125 C-15.8730811 7.97083689 -17.8901477 9.68151053 -20.44921875 11.875 Z " fill="#E11F26" transform="translate(157.44921875,71.125)"/>
<path d="M0 0 C2.97 0 5.94 0 9 0 C9.02464928 5.25105442 9.04283568 10.50207545 9.05493164 15.75317383 C9.05997218 17.54094021 9.06680454 19.32870245 9.07543945 21.11645508 C9.0875173 23.68051168 9.09323094 26.24451397 9.09765625 28.80859375 C9.10281754 29.6127623 9.10797882 30.41693085 9.11329651 31.24546814 C9.11349215 33.16401715 9.06201983 35.08245368 9 37 C8.67 37.33 8.34 37.66 8 38 C7.91286169 39.70772358 7.89299993 41.41898649 7.90234375 43.12890625 C7.90717773 44.68061523 7.90717773 44.68061523 7.91210938 46.26367188 C7.92048828 47.35228516 7.92886719 48.44089844 7.9375 49.5625 C7.94201172 50.65498047 7.94652344 51.74746094 7.95117188 52.87304688 C7.96300174 55.58208495 7.97948457 58.29101599 8 61 C6.41705218 61.05437607 4.83355744 61.09296271 3.25 61.125 C2.36828125 61.14820313 1.4865625 61.17140625 0.578125 61.1953125 C-2.16896445 60.98719966 -3.71493887 60.51829617 -6 59 C-7.63499533 55.65569138 -8.23885486 53.87580115 -7.25 50.25 C-6 48 -6 48 -4 46 C-0.375 45.875 -0.375 45.875 3 46 C2.9690625 44.2984375 2.9690625 44.2984375 2.9375 42.5625 C3 39 3 39 4 38 C2.68 37.34 1.36 36.68 0 36 C-0.99 36.66 -1.98 37.32 -3 38 C-7.86202761 38.3550919 -11.20438191 37.6464397 -15 34.5625 C-18.47378998 30.11170658 -18.6595725 26.52956674 -18 21 C-16.77622982 17.62670603 -15.22613592 14.80789888 -12.15625 12.78515625 C-9.58115136 11.84748446 -7.94675527 11.97841834 -5.25 12.375 C-3.14625 12.684375 -3.14625 12.684375 -1 13 C-0.67 8.71 -0.34 4.42 0 0 Z M-8.9375 21.125 C-10.52513015 23.92670027 -9.74070176 25.96985644 -9 29 C-5.67465243 30.10844919 -3.37817425 29.84454356 0 29 C0.68493373 26.14221967 0.68493373 26.14221967 1 23 C0.34 22.01 -0.32 21.02 -1 20 C-4.15728506 19.59694233 -6.15230863 19.50779211 -8.9375 21.125 Z M-1 50 C-1.33 51.65 -1.66 53.3 -2 55 C0.475 55.495 0.475 55.495 3 56 C3.6814823 54.10820797 3.6814823 54.10820797 4 52 C3.34 51.34 2.68 50.68 2 50 C1.01 50 0.02 50 -1 50 Z " fill="#221D1F" transform="translate(113,73)"/>
<path d="M0 0 C2.97 0 5.94 0 9 0 C9 12.21 9 24.42 9 37 C5.66666667 37 2.33333333 37 -1 37 C-2.216875 37.2475 -3.43375 37.495 -4.6875 37.75 C-9.64483173 38.39111212 -12.02948921 36.93817798 -16 34 C-18.79189099 29.61673115 -18.64246362 25.02866589 -18 20 C-16.30239041 16.47903197 -15.02875259 14.6572586 -11.75 12.5625 C-7.91892462 11.77887094 -4.85108815 12.34727319 -1 13 C-0.67 8.71 -0.34 4.42 0 0 Z M-8 20 C-10.35014158 22.837578 -10.35014158 22.837578 -9.6875 26.125 C-9.29355679 28.88086422 -9.29355679 28.88086422 -8 30 C-3.84800779 30.36296879 -3.84800779 30.36296879 -0.0625 28.875 C1.53943488 26.04805609 0.79584319 24.05073223 0 21 C-1.17110184 19.61091361 -1.17110184 19.61091361 -4.4375 19.75 C-5.613125 19.8325 -6.78875 19.915 -8 20 Z " fill="#201D1E" transform="translate(79,73)"/>
<path d="M0 0 C3.24044458 2.56535196 4.69560167 4.086805 6 8 C6 10.31 6 12.62 6 15 C0.72 15 -4.56 15 -10 15 C-9.67 15.66 -9.34 16.32 -9 17 C-5.97065509 17.65772428 -5.97065509 17.65772428 -3 18 C-3 17.34 -3 16.68 -3 16 C0.68754757 16.49831724 2.60490662 17.10067643 5 20 C1.30278268 23.69721732 -1.71807568 24.75229004 -6.7890625 25.09765625 C-11.50757376 24.88924144 -14.19683577 22.86828566 -17.3125 19.5 C-19.71250744 15.94443342 -20.21993381 13.75568659 -19.4375 9.625 C-18.24059785 4.59145258 -16.28000036 2.79510228 -12 0 C-7.8213874 -1.39287087 -4.24905937 -1.10326454 0 0 Z M-9 6 C-9.99 7.485 -9.99 7.485 -11 9 C-8.36 9 -5.72 9 -3 9 C-3.33 8.01 -3.66 7.02 -4 6 C-6.41619823 5.74969023 -6.41619823 5.74969023 -9 6 Z " fill="#1E1C1D" transform="translate(49,86)"/>
<path d="M0 0 C2.64 0 5.28 0 8 0 C8 2.31 8 4.62 8 7 C10.31 7 12.62 7 15 7 C15.04254356 8.99954746 15.04080783 11.00041636 15 13 C14 14 14 14 10.9375 14.0625 C9.968125 14.041875 8.99875 14.02125 8 14 C8.33 16.97 8.66 19.94 9 23 C12.63619656 24.08084521 12.63619656 24.08084521 15 24 C15 26.31 15 28.62 15 31 C11.93570224 32.53214888 9.3834358 32.22938548 6 32 C1.4 29.8 1.4 29.8 0 27 C-0.07092842 24.7927077 -0.08415025 22.58332548 -0.0625 20.375 C-0.05347656 19.18648437 -0.04445312 17.99796875 -0.03515625 16.7734375 C-0.02355469 15.85820313 -0.01195312 14.94296875 0 14 C-1.65 13.67 -3.3 13.34 -5 13 C-5 11.02 -5 9.04 -5 7 C-3.35 7 -1.7 7 0 7 C0 4.69 0 2.38 0 0 Z " fill="#201D1E" transform="translate(173,79)"/>
<path d="M0 0 C0 0.66 0 1.32 0 2 C1.65 2.66 3.3 3.32 5 4 C5 4.99 5 5.98 5 7 C1.99559979 9.00293347 0.29006055 9.49271626 -3.1875 10.125 C-4.08855469 10.29257813 -4.98960937 10.46015625 -5.91796875 10.6328125 C-6.60503906 10.75398438 -7.29210937 10.87515625 -8 11 C-10.43046191 17.32837252 -11.59060025 23.23784552 -12 30 C-14.875 29.75 -14.875 29.75 -18 29 C-20.49144001 25.94232362 -20.23342255 22.81256826 -20 19 C-19.708776 17.32546201 -19.38929201 15.65449105 -19 14 C-18.34 14 -17.68 14 -17 14 C-16.7834375 12.8553125 -16.7834375 12.8553125 -16.5625 11.6875 C-16 9 -16 9 -15 6 C-5.54545455 0 -5.54545455 0 0 0 Z " fill="#E21F26" transform="translate(145,68)"/>
<path d="M0 0 C3 0.125 3 0.125 4 1.125 C4.04092937 3.45797433 4.04241723 5.79205225 4 8.125 C1.36 8.455 -1.28 8.785 -4 9.125 C-5.10514766 12.44044299 -5.32107631 15.32910111 -5.5625 18.8125 C-5.64628906 19.99199219 -5.73007812 21.17148438 -5.81640625 22.38671875 C-5.87699219 23.29035156 -5.93757813 24.19398437 -6 25.125 C-8.64 25.125 -11.28 25.125 -14 25.125 C-14 17.205 -14 9.285 -14 1.125 C-10.66666667 1.125 -7.33333333 1.125 -4 1.125 C-3 0.125 -3 0.125 0 0 Z " fill="#1F1E1F" transform="translate(22,84.875)"/>
<path d="M0 0 C0.33 0.66 0.66 1.32 1 2 C0.54625 2.845625 0.0925 3.69125 -0.375 4.5625 C-2.34959508 8.73952806 -2.70605529 12.43878905 -3 17 C-2.67 17 -2.34 17 -2 17 C-2 18.65 -2 20.3 -2 22 C-0.02 22.33 1.96 22.66 4 23 C3.97679687 22.30132812 3.95359375 21.60265625 3.9296875 20.8828125 C3.91164062 19.97273438 3.89359375 19.06265625 3.875 18.125 C3.85179687 17.22007813 3.82859375 16.31515625 3.8046875 15.3828125 C4 13 4 13 6 11 C6.01417969 11.59167969 6.02835938 12.18335937 6.04296875 12.79296875 C6.31136533 17.23964718 6.51110711 19.41082139 9.4375 22.9375 C10.283125 23.618125 11.12875 24.29875 12 25 C12.66 25.66 13.32 26.32 14 27 C13.38125 27.12375 12.7625 27.2475 12.125 27.375 C9.80879168 27.87197356 9.80879168 27.87197356 8 30 C6.68 28.68 5.36 27.36 4 26 C3.67 27.65 3.34 29.3 3 31 C3.66 31 4.32 31 5 31 C5.33 31.66 5.66 32.32 6 33 C6.99 33.33 7.98 33.66 9 34 C9.33 33.34 9.66 32.68 10 32 C10.66 32.33 11.32 32.66 12 33 C12 33.66 12 34.32 12 35 C11.34 35 10.68 35 10 35 C10.34933594 36.19496094 10.69867188 37.38992187 11.05859375 38.62109375 C11.51860916 40.22645366 11.97822309 41.83192866 12.4375 43.4375 C12.66759766 44.22060547 12.89769531 45.00371094 13.13476562 45.81054688 C14.67046924 51.21889439 15.51209112 56.3974601 16 62 C16.66 62 17.32 62 18 62 C17.97679687 61.38511719 17.95359375 60.77023438 17.9296875 60.13671875 C17.90261719 58.92435547 17.90261719 58.92435547 17.875 57.6875 C17.85179687 56.88699219 17.82859375 56.08648437 17.8046875 55.26171875 C18 53 18 53 20 50 C21.26977059 53.80931176 20.52074507 55.81618993 19.5625 59.6875 C19.27503906 60.86699219 18.98757812 62.04648438 18.69140625 63.26171875 C18.46324219 64.16535156 18.23507813 65.06898438 18 66 C17.01 66 16.02 66 15 66 C14.84144531 65.06800781 14.68289062 64.13601562 14.51953125 63.17578125 C12.8968679 54.30940529 10.47596152 46.35231041 7 38 C6.505 36.515 6.505 36.515 6 35 C5.01 34.67 4.02 34.34 3 34 C-2.21100727 28.48724176 -5.51463898 23.28735568 -6.375 15.6875 C-5.77197609 9.75776487 -3.27981058 4.91971587 0 0 Z " fill="#D52B32" transform="translate(129,75)"/>
<path d="M0 0 C1.32 1.32 2.64 2.64 4 4 C4.66 3.34 5.32 2.68 6 2 C8.625 1.375 8.625 1.375 11 1 C11 1.66 11 2.32 11 3 C11.71027344 3.04898438 12.42054688 3.09796875 13.15234375 3.1484375 C14.53099609 3.26058594 14.53099609 3.26058594 15.9375 3.375 C17.31228516 3.47941406 17.31228516 3.47941406 18.71484375 3.5859375 C19.84599609 3.79089844 19.84599609 3.79089844 21 4 C21.33 4.66 21.66 5.32 22 6 C21.34 6 20.68 6 20 6 C20.185625 6.763125 20.37125 7.52625 20.5625 8.3125 C21 11 21 11 20 14 C19.34 14 18.68 14 18 14 C18 15.98 18 17.96 18 20 C14.54514961 21.1516168 12.87298335 20.70453053 9.5859375 19.234375 C6.56152863 16.88040159 6.53726286 13.6414483 6 10 C6.66 10 7.32 10 8 10 C8 9.34 8 8.68 8 8 C6.02 8.33 4.04 8.66 2 9 C1.67 8.01 1.34 7.02 1 6 C0.34 6 -0.32 6 -1 6 C-1.042721 4.33388095 -1.04063832 2.66617115 -1 1 C-0.67 0.67 -0.34 0.34 0 0 Z " fill="#EB1C25" transform="translate(133,100)"/>
<path d="M0 0 C6.93 0 13.86 0 21 0 C22.93395001 3.86790003 23.23289353 5.1500459 23.125 9.25 C23.10695313 10.14203125 23.08890625 11.0340625 23.0703125 11.953125 C23.04710938 12.62859375 23.02390625 13.3040625 23 14 C21.35 14 19.7 14 18 14 C17.67 11.03 17.34 8.06 17 5 C16.34 5 15.68 5 15 5 C14.67 7.97 14.34 10.94 14 14 C12.35 14 10.7 14 9 14 C8.95101563 13.36191406 8.90203125 12.72382813 8.8515625 12.06640625 C8.77679688 11.24011719 8.70203125 10.41382813 8.625 9.5625 C8.55539062 8.73878906 8.48578125 7.91507812 8.4140625 7.06640625 C8.27742187 6.38449219 8.14078125 5.70257813 8 5 C7.34 4.67 6.68 4.34 6 4 C6 7.3 6 10.6 6 14 C4 15 4 15 0 14 C0 9.38 0 4.76 0 0 Z " fill="#8A8B8C" transform="translate(7,119)"/>
<path d="M0 0 C1.32 0 2.64 0 4 0 C4 7.59 4 15.18 4 23 C-6 23 -6 23 -10 21 C-11.63499533 17.65569138 -12.23885486 15.87580115 -11.25 12.25 C-10 10 -10 10 -8 8 C-4.375 7.875 -4.375 7.875 -1 8 C-1.020625 6.865625 -1.04125 5.73125 -1.0625 4.5625 C-1 1 -1 1 0 0 Z M-5 12 C-5.33 13.65 -5.66 15.3 -6 17 C-3.525 17.495 -3.525 17.495 -1 18 C-0.3185177 16.10820797 -0.3185177 16.10820797 0 14 C-0.66 13.34 -1.32 12.68 -2 12 C-2.99 12 -3.98 12 -5 12 Z " fill="#898A8C" transform="translate(117,111)"/>
<path d="M0 0 C7.81872072 -0.46912324 12.15627506 2.01564637 18 7 C17.67 7.66 17.34 8.32 17 9 C14.36 8.67 11.72 8.34 9 8 C9.28875 8.556875 9.5775 9.11375 9.875 9.6875 C10.431875 10.8321875 10.431875 10.8321875 11 12 C11.37125 12.721875 11.7425 13.44375 12.125 14.1875 C14.02151394 20.28343767 13.41179557 26.1212483 11 32 C10.34 32 9.68 32 9 32 C9 32.99 9 33.98 9 35 C5.7 34.67 2.4 34.34 -1 34 C1 32 1 32 3.9375 31.0625 C7.66644548 29.76878422 9.2559281 28.48814381 11 25 C11.33421955 19.3707837 11.33421955 19.3707837 10 14 C6.64957547 11.45367736 2.14155528 10.78495771 -2 11 C-5.19637332 12.71657086 -7.44887874 14.44887874 -10 17 C-9.67 14.69 -9.34 12.38 -9 10 C-5.92306138 8.97435379 -2.85014995 7.95389229 0.25 7 C3.09816984 6.1837538 3.09816984 6.1837538 5 4 C3.35 2.68 1.7 1.36 0 0 Z " fill="#D0282E" transform="translate(145,69)"/>
<path d="M0 0 C2.57933662 0.04622467 3.85347187 0.09726543 6.125 1.375 C7.54598605 4.03934884 7.32267261 6.28491085 7.125 9.25 C6.135 9.745 6.135 9.745 5.125 10.25 C5.785 10.91 6.445 11.57 7.125 12.25 C4.19478621 14.40456896 2.69003279 15.27260131 -1 15.125 C-3.96655626 14.22213505 -5.15272957 13.78808274 -6.875 11.25 C-7.75 8.875 -7.75 8.875 -7.875 6.25 C-4.90833333 0.31666667 -4.90833333 0.31666667 0 0 Z M-0.875 3.25 C-1.205 3.91 -1.535 4.57 -1.875 5.25 C-0.555 4.92 0.765 4.59 2.125 4.25 C1.135 3.92 0.145 3.59 -0.875 3.25 Z M-1.875 9.25 C-0.39 10.24 -0.39 10.24 1.125 11.25 C1.785 10.59 2.445 9.93 3.125 9.25 C1.475 9.25 -0.175 9.25 -1.875 9.25 Z " fill="#8B8B8C" transform="translate(67.875,118.75)"/>
<path d="M0 0 C4.21671294 0.12222356 4.21671294 0.12222356 6.6875 2.375 C7.89202857 6.59085001 7.33400544 10.17098199 6.5625 14.4375 C4.98236783 14.68778811 3.39807694 14.91190946 1.8125 15.125 C0.48992187 15.31642578 0.48992187 15.31642578 -0.859375 15.51171875 C-3.99426517 15.42147191 -5.15573587 14.51134637 -7.4375 12.4375 C-6.6875 7.6875 -6.6875 7.6875 -4.4375 5.4375 C-5.0975 4.4475 -5.7575 3.4575 -6.4375 2.4375 C-4.0454161 0.0454161 -3.28611114 0.09173052 0 0 Z M-1.4375 3.4375 C-2.0975 4.0975 -2.7575 4.7575 -3.4375 5.4375 C-1.7875 5.4375 -0.1375 5.4375 1.5625 5.4375 C1.2325 4.7775 0.9025 4.1175 0.5625 3.4375 C-0.0975 3.4375 -0.7575 3.4375 -1.4375 3.4375 Z M1.5625 8.4375 C0.5725 8.7675 -0.4175 9.0975 -1.4375 9.4375 C-1.4375 10.0975 -1.4375 10.7575 -1.4375 11.4375 C-0.1175 11.1075 1.2025 10.7775 2.5625 10.4375 C2.2325 9.7775 1.9025 9.1175 1.5625 8.4375 Z " fill="#808183" transform="translate(182.4375,118.5625)"/>
<path d="M0 0 C1.32 0.33 2.64 0.66 4 1 C3.01 1 2.02 1 1 1 C1.09539062 1.97582031 1.19078125 2.95164062 1.2890625 3.95703125 C1.39992188 5.22933594 1.51078125 6.50164062 1.625 7.8125 C1.79902344 9.70935547 1.79902344 9.70935547 1.9765625 11.64453125 C2 15 2 15 0 18 C-0.66 18.33 -1.32 18.66 -2 19 C-2 19.33 -2 19.66 -2 20 C-4.31 20.33 -6.62 20.66 -9 21 C-9 20.34 -9 19.68 -9 19 C-10.98 19.33 -12.96 19.66 -15 20 C-14.01 20.99 -13.02 21.98 -12 23 C-15 23 -15 23 -17 22 C-16.34 25.63 -15.68 29.26 -15 33 C-18.43082312 29.56917688 -18.43082312 29.56917688 -18.4375 25.75 C-18.267955 20.80090073 -16.92127201 17.9761758 -14 14 C-10.90537526 11.96095701 -8.87286204 11.84222617 -5.25 12.375 C-3.14625 12.684375 -3.14625 12.684375 -1 13 C-0.67 8.71 -0.34 4.42 0 0 Z " fill="#1A1718" transform="translate(113,73)"/>
<path d="M0 0 C0.33 0.99 0.66 1.98 1 3 C2.32 2.67 3.64 2.34 5 2 C5 2.66 5 3.32 5 4 C6.32 3.67 7.64 3.34 9 3 C11.44316973 8.70072936 12.51708942 12.79492698 12 19 C11 21.5 11 21.5 10 23 C9.01 22.67 8.02 22.34 7 22 C7 20.68 7 19.36 7 18 C6.67449498 16.33178677 6.34153937 14.66500443 6 13 C6 12.01 6 11.02 6 10 C5.17280855 7.82890503 5.17280855 7.82890503 3 7.0625 C1 6 1 6 0 3 C-0.66 2.67 -1.32 2.34 -2 2 C-1.34 2 -0.68 2 0 2 C0 1.34 0 0.68 0 0 Z " fill="#E81C23" transform="translate(153,74)"/>
<path d="M0 0 C0.33 0.66 0.66 1.32 1 2 C2.64363134 2.72159424 4.31050386 3.39351421 6 4 C6 4.99 6 5.98 6 7 C2.90131855 9.06578763 0.65023694 9.74691358 -2.9375 10.625 C-4.49791016 11.01558594 -4.49791016 11.01558594 -6.08984375 11.4140625 C-9 12 -9 12 -13 12 C-13 10.68 -13 9.36 -13 8 C-12.360625 7.87625 -11.72125 7.7525 -11.0625 7.625 C-10.381875 7.41875 -9.70125 7.2125 -9 7 C-8.67 6.34 -8.34 5.68 -8 5 C-6.67592331 4.31513275 -5.34090759 3.65129797 -4 3 C-2.64886795 2.02418241 -1.31053056 1.02970259 0 0 Z " fill="#E91D26" transform="translate(144,68)"/>
<path d="M0 0 C3.31234954 3.0393537 4.13659236 5.53906051 5 10 C5.234308 16.75793595 3.18132214 22.66909603 -1 28 C-3.16796875 29.25390625 -3.16796875 29.25390625 -5 30 C-4.01 28.515 -4.01 28.515 -3 27 C-2.95834635 25.33385392 -2.95834635 23.66614608 -3 22 C-2.67 21.01 -2.34 20.02 -2 19 C-1.34 19 -0.68 19 0 19 C0.9154645 14.53795824 0.97847873 10.65454615 0.5625 6.125 C0.40974609 4.39636719 0.40974609 4.39636719 0.25390625 2.6328125 C0.17011719 1.76398438 0.08632812 0.89515625 0 0 Z " fill="#D12A30" transform="translate(163,78)"/>
<path d="M0 0 C1.32 0 2.64 0 4 0 C4 7.59 4 15.18 4 23 C-6 23 -6 23 -10 21 C-9.67 20.34 -9.34 19.68 -9 19 C-8.67 19 -8.34 19 -8 19 C-7.67 17.02 -7.34 15.04 -7 13 C-6.7525 13.639375 -6.505 14.27875 -6.25 14.9375 C-5.18437567 17.18741541 -5.18437567 17.18741541 -2.875 17.75 C-2.25625 17.8325 -1.6375 17.915 -1 18 C-0.34 16.68 0.32 15.36 1 14 C0.67 15.98 0.34 17.96 0 20 C0.66 20 1.32 20 2 20 C2.33 13.73 2.66 7.46 3 1 C2.01 0.67 1.02 0.34 0 0 Z " fill="#7F8082" transform="translate(117,111)"/>
<path d="M0 0 C0.33 0 0.66 0 1 0 C1.67218507 2.74875682 2.33792435 5.49880726 3 8.25 C3.19078125 9.02730469 3.3815625 9.80460937 3.578125 10.60546875 C3.75859375 11.35957031 3.9390625 12.11367187 4.125 12.890625 C4.29257813 13.58188477 4.46015625 14.27314453 4.6328125 14.98535156 C5 17 5 17 5 21 C5.66 21 6.32 21 7 21 C6.97679687 20.38511719 6.95359375 19.77023438 6.9296875 19.13671875 C6.91164062 18.32847656 6.89359375 17.52023438 6.875 16.6875 C6.85179687 15.88699219 6.82859375 15.08648437 6.8046875 14.26171875 C7 12 7 12 9 9 C10.26977059 12.80931176 9.52074507 14.81618993 8.5625 18.6875 C8.27503906 19.86699219 7.98757812 21.04648438 7.69140625 22.26171875 C7.46324219 23.16535156 7.23507813 24.06898438 7 25 C6.01 25 5.02 25 4 25 C3.70996094 23.53240234 3.70996094 23.53240234 3.4140625 22.03515625 C3.15117336 20.71091135 2.88814321 19.38669444 2.625 18.0625 C2.4899707 17.3804248 2.35494141 16.69834961 2.21582031 15.99560547 C1.45672243 12.18839603 0.6440599 8.40332162 -0.25 4.625 C-0.4975 3.42875 -0.745 2.2325 -1 1 C-0.67 0.67 -0.34 0.34 0 0 Z " fill="#B23940" transform="translate(140,116)"/>
<path d="M0 0 C0.66 1.32 1.32 2.64 2 4 C1.34 4 0.68 4 0 4 C0.33 4.7425 0.66 5.485 1 6.25 C2 9 2 9 2 13 C2.93283296 15.20067421 2.93283296 15.20067421 4 17 C1.125 16.75 1.125 16.75 -2 16 C-4.48113995 12.9549646 -4.24784659 9.80031434 -4 6 C-3.67 5.34 -3.34 4.68 -3 4 C-2.34 4 -1.68 4 -1 4 C-0.67 2.68 -0.34 1.36 0 0 Z " fill="#E71D24" transform="translate(129,81)"/>
<path d="M0 0 C0.66 0 1.32 0 2 0 C2 0.66 2 1.32 2 2 C2.66 2.33 3.32 2.66 4 3 C4.66 3.66 5.32 4.32 6 5 C8.57061311 5.64767793 8.57061311 5.64767793 11 6 C11 5.34 11 4.68 11 4 C11.99 4.33 12.98 4.66 14 5 C12.68 6.65 11.36 8.3 10 10 C8.35 9.67 6.7 9.34 5 9 C5.0721875 9.61488281 5.144375 10.22976562 5.21875 10.86328125 C5.3115625 11.67152344 5.404375 12.47976562 5.5 13.3125 C5.5928125 14.11300781 5.685625 14.91351563 5.78125 15.73828125 C6 18 6 18 6 21 C4 19 4 19 3.8046875 15.9609375 C3.83949219 14.18589844 3.83949219 14.18589844 3.875 12.375 C3.89304688 11.18648437 3.91109375 9.99796875 3.9296875 8.7734375 C3.95289063 7.85820313 3.97609375 6.94296875 4 6 C2.68 6 1.36 6 0 6 C0 4.02 0 2.04 0 0 Z " fill="#1C1717" transform="translate(169,87)"/>
<path d="M0 0 C0.33 0.66 0.66 1.32 1 2 C0.54625 2.845625 0.0925 3.69125 -0.375 4.5625 C-2.34959508 8.73952806 -2.70605529 12.43878905 -3 17 C-2.67 17 -2.34 17 -2 17 C-1.67 20.63 -1.34 24.26 -1 28 C-4.88652366 24.11347634 -5.7632123 21.09162468 -6.375 15.6875 C-5.77197609 9.75776487 -3.27981058 4.91971587 0 0 Z " fill="#AA373E" transform="translate(129,75)"/>
<path d="M0 0 C2.31 0.33 4.62 0.66 7 1 C5.02 1.99 5.02 1.99 3 3 C3.495 3.53625 3.99 4.0725 4.5 4.625 C6.37489544 7.59358445 6.23501425 9.55312427 6 13 C4.35 13 2.7 13 1 13 C0.83147753 11.39602723 0.66525114 9.7918131 0.5 8.1875 C0.4071875 7.29417969 0.314375 6.40085937 0.21875 5.48046875 C0 3 0 3 0 0 Z " fill="#8E8F91" transform="translate(15,120)"/>
<path d="M0 0 C2 3 2 3 1.625 6.1875 C1.41875 7.115625 1.2125 8.04375 1 9 C1.66 9 2.32 9 3 9 C3 10.32 3 11.64 3 13 C-0.28976808 14.09658936 -1.71303767 13.79953138 -5 13 C-4.67 12.01 -4.34 11.02 -4 10 C-4 10.66 -4 11.32 -4 12 C-3.34 12 -2.68 12 -2 12 C-2.57452746 8.06924356 -2.57452746 8.06924356 -5 5 C-4 2 -4 2 -1.9375 0.8125 C-1.298125 0.544375 -0.65875 0.27625 0 0 Z " fill="#231F1E" transform="translate(119,97)"/>
<path d="M0 0 C1.95612508 1.62580316 2.91206027 2.50356606 3.36328125 5.05078125 C3.25803284 9.73838329 2.80689207 13.59570058 1 18 C0.34 18 -0.32 18 -1 18 C-1 18.99 -1 19.98 -1 21 C-4.3 20.67 -7.6 20.34 -11 20 C-9 18 -9 18 -6.0625 17.0625 C-2.33355452 15.76878422 -0.7440719 14.48814381 1 11 C1.1421988 7.16063232 1.17754676 3.67983361 0 0 Z " fill="#C53238" transform="translate(155,83)"/>
<path d="M0 0 C2.07477826 3.11216739 2.25522588 3.84060508 2.265625 7.37890625 C2.26820312 8.21744141 2.27078125 9.05597656 2.2734375 9.91992188 C2.26570313 10.79197266 2.25796875 11.66402344 2.25 12.5625 C2.25773437 13.43841797 2.26546875 14.31433594 2.2734375 15.21679688 C2.27085938 16.05404297 2.26828125 16.89128906 2.265625 17.75390625 C2.26336914 18.52033447 2.26111328 19.2867627 2.25878906 20.07641602 C2 22 2 22 0 24 C-1 21 -1 21 -0.5 18.0625 C-0.0314299 15.19250811 0.08294623 13.65814074 -1 11 C-1.66 10.67 -2.32 10.34 -3 10 C-2.34 10 -1.68 10 -1 10 C-0.67 6.7 -0.34 3.4 0 0 Z " fill="#201516" transform="translate(120,84)"/>
<path d="M0 0 C2.92090003 1.30936898 4.75619462 2.75619462 7 5 C7.99 5.33 8.98 5.66 10 6 C10.33 5.34 10.66 4.68 11 4 C11.66 4.33 12.32 4.66 13 5 C13 5.66 13 6.32 13 7 C12.34 7 11.68 7 11 7 C11.33 9.31 11.66 11.62 12 14 C11.34 14 10.68 14 10 14 C7 9.61538462 7 9.61538462 7 7 C6.01 6.67 5.02 6.34 4 6 C2.60287726 4.04402816 1.26220093 2.04563599 0 0 Z " fill="#C4292C" transform="translate(128,103)"/>
<path d="M0 0 C0.33 0 0.66 0 1 0 C1 7.26 1 14.52 1 22 C-1.64 22 -4.28 22 -7 22 C-6.3125 20.0625 -6.3125 20.0625 -5 18 C-3.35 17.67 -1.7 17.34 0 17 C0 11.39 0 5.78 0 0 Z " fill="#181617" transform="translate(87,88)"/>
<path d="M0 0 C3.49098285 2.69757766 4.18119263 5.76949524 5 10 C4.93492895 14.82339149 4.34233218 18.74732313 2 23 C1.67 22.34 1.34 21.68 1 21 C1.33 20.01 1.66 19.02 2 18 C2.2615967 12.68086715 1.83323736 9.04140274 0 4 C0 2.68 0 1.36 0 0 Z " fill="#BB3B40" transform="translate(163,78)"/>
<path d="M0 0 C2.31 0 4.62 0 7 0 C7.33 2.31 7.66 4.62 8 7 C6.02 7 4.04 7 2 7 C2 6.34 2 5.68 2 5 C2.66 5 3.32 5 4 5 C4 4.34 4 3.68 4 3 C3.34 3 2.68 3 2 3 C2 2.34 2 1.68 2 1 C1.34 0.67 0.68 0.34 0 0 Z " fill="#8E8E8F" transform="translate(67,120)"/>
<path d="M0 0 C1.65 0.33 3.3 0.66 5 1 C5 1.99 5 2.98 5 4 C3 6 3 6 0.8359375 6.1953125 C-0.38222656 6.16050781 -0.38222656 6.16050781 -1.625 6.125 C-2.44226562 6.10695313 -3.25953125 6.08890625 -4.1015625 6.0703125 C-4.72804687 6.04710938 -5.35453125 6.02390625 -6 6 C-5.34 5.34 -4.68 4.68 -4 4 C-3.01 4 -2.02 4 -1 4 C-0.67 2.68 -0.34 1.36 0 0 Z " fill="#211F20" transform="translate(48,103)"/>
<path d="M0 0 C0.99 0 1.98 0 3 0 C3.12375 0.61875 3.2475 1.2375 3.375 1.875 C3.87197356 4.19120832 3.87197356 4.19120832 6 6 C4.68 6.33 3.36 6.66 2 7 C1.67 8.32 1.34 9.64 1 11 C-1.31 11.66 -3.62 12.32 -6 13 C-6 12.01 -6 11.02 -6 10 C-4.35 10 -2.7 10 -1 10 C-0.06619039 5.46859347 -0.06619039 5.46859347 -1 1 C-0.67 0.67 -0.34 0.34 0 0 Z " fill="#1B1517" transform="translate(113,92)"/>
<path d="M0 0 C0.66 0.66 1.32 1.32 2 2 C2.33 2 2.66 2 3 2 C4.33568021 2.32380126 5.66923011 2.65657551 7 3 C5 5 5 5 3 6 C3.66 8.31 4.32 10.62 5 13 C3.0625 12.1875 3.0625 12.1875 1 11 C-0.28317892 7.15046324 -0.06643637 4.05261865 0 0 Z " fill="#1A1718" transform="translate(61,95)"/>
<path d="M0 0 C4.95 0 9.9 0 15 0 C13.68 0.33 12.36 0.66 11 1 C11 1.99 11 2.98 11 4 C10.01 4.495 10.01 4.495 9 5 C8.01 6.485 8.01 6.485 7 8 C6.34 7.67 5.68 7.34 5 7 C5 6.01 5 5.02 5 4 C5.66 3.67 6.32 3.34 7 3 C4.69 2.34 2.38 1.68 0 1 C0 0.67 0 0.34 0 0 Z " fill="#838385" transform="translate(13,119)"/>
<path d="M0 0 C0.33 0.66 0.66 1.32 1 2 C-2.625 5 -2.625 5 -6 5 C-6.33 5.99 -6.66 6.98 -7 8 C-8.32 8 -9.64 8 -11 8 C-9.98244259 5.33869601 -9.33315139 4.19483944 -6.8359375 2.734375 C-5.61777344 2.24710937 -5.61777344 2.24710937 -4.375 1.75 C-3.55773437 1.41484375 -2.74046875 1.0796875 -1.8984375 0.734375 C-0.95871094 0.37085937 -0.95871094 0.37085937 0 0 Z " fill="#C32E38" transform="translate(142,68)"/>
<path d="M0 0 C1.32 1.32 2.64 2.64 4 4 C3.34 6.31 2.68 8.62 2 11 C1.01 11 0.02 11 -1 11 C-0.67 9.35 -0.34 7.7 0 6 C-1.65 5.67 -3.3 5.34 -5 5 C-4.360625 4.54625 -3.72125 4.0925 -3.0625 3.625 C-0.90297594 2.16078274 -0.90297594 2.16078274 0 0 Z " fill="#919294" transform="translate(186,121)"/>
<path d="M0 0 C0.99 0 1.98 0 3 0 C3.33 0.66 3.66 1.32 4 2 C7.34252724 2.07427838 9.8035914 2.06546953 13 1 C12.67 1.99 12.34 2.98 12 4 C9.27366306 5.10213621 6.95855967 6 4 6 C3.01 6.495 3.01 6.495 2 7 C2 5.35 2 3.7 2 2 C1.34 2 0.68 2 0 2 C0 1.34 0 0.68 0 0 Z " fill="#1B1718" transform="translate(67,100)"/>
<path d="M0 0 C2.05078125 0.03255208 4.1015625 0.06510417 6.15234375 0.09765625 C4.50234375 1.41765625 2.85234375 2.73765625 1.15234375 4.09765625 C2.47234375 4.09765625 3.79234375 4.09765625 5.15234375 4.09765625 C5.15234375 4.75765625 5.15234375 5.41765625 5.15234375 6.09765625 C3.17234375 6.09765625 1.19234375 6.09765625 -0.84765625 6.09765625 C-1.17765625 5.10765625 -1.50765625 4.11765625 -1.84765625 3.09765625 C-2.83765625 3.75765625 -3.82765625 4.41765625 -4.84765625 5.09765625 C-2.44354091 0.12915121 -2.44354091 0.12915121 0 0 Z " fill="#808082" transform="translate(65.84765625,118.90234375)"/>
<path d="M0 0 C0 3.62850626 -1.06953668 5.86167278 -2.5 9.1875 C-2.9640625 10.27417969 -3.428125 11.36085938 -3.90625 12.48046875 C-4.2671875 13.31191406 -4.628125 14.14335938 -5 15 C-5.66 15 -6.32 15 -7 15 C-7 13.68 -7 12.36 -7 11 C-6.34 11 -5.68 11 -5 11 C-5 9.02 -5 7.04 -5 5 C-4.34 5 -3.68 5 -3 5 C-3 4.01 -3 3.02 -3 2 C-2.01 1.34 -1.02 0.68 0 0 Z " fill="#C3313A" transform="translate(156,109)"/>
<path d="M0 0 C0.45375 0.474375 0.9075 0.94875 1.375 1.4375 C2.93258204 3.09027808 2.93258204 3.09027808 5 4 C4.67 6.97 4.34 9.94 4 13 C3.34 13 2.68 13 2 13 C1.66127487 11.58461283 1.32925376 10.16762037 1 8.75 C0.814375 7.96109375 0.62875 7.1721875 0.4375 6.359375 C0 4 0 4 0 0 Z " fill="#D3252D" transform="translate(143,124)"/>
<path d="M0 0 C2.875 -0.1875 2.875 -0.1875 6 0 C6.66 0.99 7.32 1.98 8 3 C7.34 3 6.68 3 6 3 C5.67 3.99 5.34 4.98 5 6 C4.34 5.34 3.68 4.68 3 4 C3 3.01 3 2.02 3 1 C2.34 1 1.68 1 1 1 C1 2.65 1 4.3 1 6 C0.67 6 0.34 6 0 6 C0 4.02 0 2.04 0 0 Z M7 0 C9 1 9 1 9 1 Z " fill="#302023" transform="translate(168,86)"/>
<path d="M0 0 C1.98 0.495 1.98 0.495 4 1 C3.01 1 2.02 1 1 1 C1.33 5.62 1.66 10.24 2 15 C1.01 15.33 0.02 15.66 -1 16 C-0.67 10.72 -0.34 5.44 0 0 Z " fill="#141210" transform="translate(113,73)"/>
<path d="M0 0 C1.32 0.33 2.64 0.66 4 1 C4 2.32 4 3.64 4 5 C0.71023192 6.09658936 -0.71303767 5.79953138 -4 5 C-3.67 4.01 -3.34 3.02 -3 2 C-3 2.66 -3 3.32 -3 4 C-2.34 4 -1.68 4 -1 4 C-0.67 2.68 -0.34 1.36 0 0 Z " fill="#2D2A2C" transform="translate(118,105)"/>
<path d="M0 0 C0.33 0 0.66 0 1 0 C1.33 3.63 1.66 7.26 2 11 C-1.29485231 7.70514769 -1.71211884 6.51013824 -2 2 C-1.34 1.34 -0.68 0.68 0 0 Z " fill="#AF282D" transform="translate(126,92)"/>
<path d="M0 0 C1.2065625 0.0309375 1.2065625 0.0309375 2.4375 0.0625 C2.125 1.9375 2.125 1.9375 1.4375 4.0625 C0.4475 4.7225 -0.5425 5.3825 -1.5625 6.0625 C-2.2225 4.4125 -2.8825 2.7625 -3.5625 1.0625 C-2.5625 0.0625 -2.5625 0.0625 0 0 Z " fill="#232021" transform="translate(105.5625,85.9375)"/>
<path d="M0 0 C0.33 0 0.66 0 1 0 C1 2.31 1 4.62 1 7 C-1.64 7 -4.28 7 -7 7 C-6.67 6.01 -6.34 5.02 -6 4 C-5.01 3.67 -4.02 3.34 -3 3 C-3 3.99 -3 4.98 -3 6 C-2.67 5.34 -2.34 4.68 -2 4 C-1.34 4 -0.68 4 0 4 C0 2.68 0 1.36 0 0 Z " fill="#868789" transform="translate(188,126)"/>
<path d="M0 0 C2.1875 0.3125 2.1875 0.3125 4 1 C3.34 1.66 2.68 2.32 2 3 C2.66 3.66 3.32 4.32 4 5 C2.1875 5.6875 2.1875 5.6875 0 6 C-1.75 4.5625 -1.75 4.5625 -3 3 C-1.75 1.4375 -1.75 1.4375 0 0 Z " fill="#232021" transform="translate(41,86)"/>
<path d="M0 0 C0.33 0.66 0.66 1.32 1 2 C2.32 2.33 3.64 2.66 5 3 C0.545 4.485 0.545 4.485 -4 6 C-3.67 4.35 -3.34 2.7 -3 1 C-2.01 0.67 -1.02 0.34 0 0 Z " fill="#DE1E24" transform="translate(143,101)"/>
<path d="M0 0 C1.98 0 3.96 0 6 0 C5.34 0.66 4.68 1.32 4 2 C4.66 2.66 5.32 3.32 6 4 C5.34 4.66 4.68 5.32 4 6 C3.01 5.67 2.02 5.34 1 5 C0.67 3.35 0.34 1.7 0 0 Z " fill="#838385" transform="translate(69,127)"/>
<path d="M0 0 C0.33 0.66 0.66 1.32 1 2 C1.66 2 2.32 2 3 2 C3 3.98 3 5.96 3 8 C2.67 7.34 2.34 6.68 2 6 C1.01 6.33 0.02 6.66 -1 7 C-1.04254356 5.00045254 -1.04080783 2.99958364 -1 1 C-0.67 0.67 -0.34 0.34 0 0 Z " fill="#8F9092" transform="translate(27,123)"/>
<path d="M0 0 C0.33 0 0.66 0 1 0 C1.9765625 6.0546875 1.9765625 6.0546875 2 8 C1.34 8.66 0.68 9.32 0 10 C-2.31 9.34 -4.62 8.68 -7 8 C-7 7.67 -7 7.34 -7 7 C-4.69 7 -2.38 7 0 7 C0 4.69 0 2.38 0 0 Z " fill="#828385" transform="translate(116,112)"/>
<path d="M0 0 C0.33 0 0.66 0 1 0 C1.33 2.64 1.66 5.28 2 8 C-0.49092811 9.24546405 -1.41080733 8.7767578 -4 8 C-3.67 6.68 -3.34 5.36 -3 4 C-2.67 4.99 -2.34 5.98 -2 7 C-1.34 7 -0.68 7 0 7 C0 4.69 0 2.38 0 0 Z " fill="#858585" transform="translate(11,125)"/>
<path d="M0 0 C0.33 0 0.66 0 1 0 C1.33 2.64 1.66 5.28 2 8 C1.01 8 0.02 8 -1 8 C-1.04241723 5.66705225 -1.04092937 3.33297433 -1 1 C-0.67 0.67 -0.34 0.34 0 0 Z " fill="#949496" transform="translate(108,122)"/>
<path d="M0 0 C-0.66 0.66 -1.32 1.32 -2 2 C-2.33 2.66 -2.66 3.32 -3 4 C-4.65 3.67 -6.3 3.34 -8 3 C-5.45189726 -0.82215411 -4.39145359 -1.46381786 0 0 Z " fill="#EA191F" transform="translate(163,99)"/>
</svg>
